# xmcd
#
# Track frame offsets: 
#        150
#        11625
#        23907
#        36960
#        50118
#        64237
#        74436
#        86401
#        97429
#        111722
#        124496
#        137237
#        150941
#        163634
#        177118
#        188389
#        201287
#        213923
#        228764
#        242678
#
# Disc length: 3401 seconds
#
# Revision: 0
# Processed by: cddbd v1.5.2PL0 Copyright (c) Steve Scherf et al.
# Submitted via: ExactAudioCopy v0.99pb5
#
DISCID=200d4714
DTITLE=Waters Muddy - I'm Ready
DYEAR=2009
DGENRE=Blues
TTITLE0=Gypsy Woman
TTITLE1=Canary Bird
TTITLE2=Louisiana Blues
TTITLE3=She Moves Me
TTITLE4=Sad, Sad Day
TTITLE5=Evil
TTITLE6=Long Distance Call
TTITLE7=Gone To Main Street
TTITLE8=Blow Wind Blow
TTITLE9=I'm Your Hoochie Coochie Man
TTITLE10=Just Make Love To Me
TTITLE11=I'm Ready
TTITLE12=I'm A Natural Born Lover
TTITLE13=Young Fashioned Ways
TTITLE14=Sugar Sweet
TTITLE15=Forty Days and Forty Nights
TTITLE16=Live The Life I Love
TTITLE17=She's Nineteen Years Old
TTITLE18=Close To You
TTITLE19=She's Got It
EXTD=
EXTT0=
EXTT1=
EXTT2=
EXTT3=
EXTT4=
EXTT5=
EXTT6=
EXTT7=
EXTT8=
EXTT9=
EXTT10=
EXTT11=
EXTT12=
EXTT13=
EXTT14=
EXTT15=
EXTT16=
EXTT17=
EXTT18=
EXTT19=
PLAYORDER=
